<svg width="85" height="50" viewBox="0 0 85 50" fill="none" xmlns="http://www.w3.org/2000/svg">
<path fill-rule="evenodd" clip-rule="evenodd" d="M46.4338 1.45399C47.8453 2.30041 49.5781 3.16652 50.285 3.37866C51.449 3.72778 51.5352 3.63345 51.2004 2.37289C50.6936 0.462602 52.0933 0.526564 55.3374 2.56158C58.0087 4.23735 58.971 4.28957 57.4259 2.67456C55.157 0.30482 57.1739 0.408771 60.936 2.8558C63.5685 4.56781 64.7833 4.77246 63.1508 3.22888C62.7838 2.88189 62.6671 2.42457 62.8909 2.21297C63.427 1.70554 66.9614 3.49539 69.449 5.53414C70.5369 6.42585 73.3898 8.05632 75.7878 9.15697C80.4406 11.2933 82.4163 13.1774 83.7393 16.7416C84.9389 19.9738 85.3312 24.4015 84.7044 27.6315C84.2038 30.2107 83.7664 30.8834 81.0634 33.2281C79.3735 34.6938 76.4141 36.8147 74.4873 37.9414L70.9839 39.9897L71.3396 38.3076C71.6531 36.8264 71.5668 36.6633 70.6226 36.9468C70.0324 37.1238 69.3757 37.0028 69.1632 36.6782C68.9507 36.3531 68.4287 36.2134 68.0031 36.3675C67.5775 36.522 66.9918 36.2465 66.7015 35.7556C66.3278 35.1245 65.5076 34.8884 63.9005 34.9491C58.228 35.1629 55.2376 38.8006 53.9236 47.0841L53.5352 49.5343L50.4163 49.376C47.3362 49.2204 47.2872 49.1916 46.5273 47.1086C46.1034 45.9482 45.7415 43.0103 45.7229 40.5793L45.6886 36.1596L32.3464 36.1644L19.0037 36.1697L16.1023 37.7432C11.9721 39.9828 10.0944 42.6468 8.90218 47.9555C8.70939 48.8158 8.09496 49.4821 7.31311 49.6803C5.45009 50.1526 1.92303 50.0881 1.58819 49.5759C1.08763 48.81 0.109613 42.1991 0.0143481 38.9397C-0.0611875 36.3435 0.137799 35.6095 1.18402 34.6203C2.78831 33.1033 4.32608 29.7161 5.18346 25.8091C5.9873 22.149 5.6626 21.3799 4.65753 24.5635C3.69022 27.6278 1.27421 31.4414 0.563389 31.0257C-0.180693 30.5907 0.464743 23.3349 1.55212 19.9189C2.72743 16.2268 4.38808 13.9801 7.67952 11.6301C12.0786 8.49019 19.011 5.94828 27.9783 4.18776C30.4614 3.70059 31.3289 3.28432 31.5533 2.47202C31.8064 1.55791 32.1497 1.45184 33.8825 1.75192C39.887 2.79288 39.9727 2.78755 40.9963 1.31059C42.2325 -0.473379 43.2647 -0.446173 46.4338 1.45399ZM71.7269 13.2169C69.9067 15.6341 69.3233 17.6414 69.9721 19.2548C70.7015 21.0691 73.4873 22.4048 76.1119 22.1986C77.8814 22.0595 78.192 21.8447 78.192 20.7605C78.192 19.4701 77.847 19.1812 74.8098 17.9281C73.5144 17.3935 73.0775 16.8317 72.9439 15.5264C72.8481 14.5894 73.0471 13.332 73.3864 12.7319C74.3397 11.0481 73.0837 11.4153 71.7269 13.2169ZM60.7618 24.1568C61.6897 25.4952 61.6846 28.9784 60.7528 30.9628C60.4518 31.6034 60.5612 31.8955 61.1018 31.8955C61.5341 31.8955 62.8757 32.3715 64.0826 32.9535C66.8859 34.3047 67.2207 33.9652 65.0803 31.9414C63.5961 30.538 63.4208 30.0583 63.6576 28.0531C63.8695 26.2558 63.6655 25.452 62.7043 24.3002C61.0798 22.3537 59.4281 22.2316 60.7618 24.1568ZM25.9236 40.0239C23.3537 43.0044 22.887 43.9303 22.4191 46.9785L22.0268 49.5359L18.8622 49.3771C15.9197 49.2294 15.6682 49.1122 15.2725 47.7056C15.0386 46.8741 14.7675 44.9552 14.6705 43.4415L14.4941 40.6901L17.5544 39.2244C19.9512 38.0768 21.4028 37.7586 24.246 37.7586H27.8768L25.9236 40.0239Z" fill="#F86E22"/>
</svg>
